<svg width="16" height="16" viewBox="0 0 24 24" fill="none" xmlns="http://www.w3.org/2000/svg">
<mask id="mask0_1_21" style="mask-type:luminance" maskUnits="userSpaceOnUse" x="0" y="0" width="24" height="23">
<path d="M23.1724 13.7143H21.5172V7.71428C21.5172 6.57764 21.0813 5.48755 20.3053 4.68382C19.5293 3.88009 18.4768 3.42856 17.3793 3.42856H12.4138V1.71428H17.3793C18.9157 1.71428 20.3892 2.34642 21.4757 3.47164C22.5621 4.59686 23.1724 6.12298 23.1724 7.71428V13.7143ZM8.27586 21.4286H5.7931C2.59862 21.4286 0 18.7371 0 15.4286V13.7143H1.65517V15.4286C1.65517 17.7917 3.51145 19.7143 5.7931 19.7143H8.27586V21.4286Z" fill="white"/>
<path d="M4.13791 18H9.10343V22.2857H4.13791V18Z" fill="url(#paint0_linear_1_21)"/>
<path d="M19.0345 4.28572L12.4138 4.28572V0.857149L19.0345 0.857149V4.28572Z" fill="url(#paint1_linear_1_21)"/>
<path d="M0.827586 1.71429C1.28465 1.71429 1.65517 1.33053 1.65517 0.857143C1.65517 0.383756 1.28465 0 0.827586 0C0.370523 0 0 0.383756 0 0.857143C0 1.33053 0.370523 1.71429 0.827586 1.71429Z" fill="white"/>
<path d="M3.31036 0H11.5862V1.71429H3.31036V0Z" fill="white"/>
<path d="M0.827586 8.57143C1.28465 8.57143 1.65517 8.18768 1.65517 7.71429C1.65517 7.2409 1.28465 6.85715 0.827586 6.85715C0.370523 6.85715 0 7.2409 0 7.71429C0 8.18768 0.370523 8.57143 0.827586 8.57143Z" fill="white"/>
<path d="M3.31036 6.85715H11.5862V8.57143H3.31036V6.85715Z" fill="white"/>
<path d="M10.7586 5.14287C11.2157 5.14287 11.5862 4.75912 11.5862 4.28573C11.5862 3.81234 11.2157 3.42859 10.7586 3.42859C10.3016 3.42859 9.93103 3.81234 9.93103 4.28573C9.93103 4.75912 10.3016 5.14287 10.7586 5.14287Z" fill="white"/>
<path d="M0 3.42859H8.27586V5.14287H0V3.42859Z" fill="white"/>
<path d="M10.7586 12C11.2157 12 11.5862 11.6163 11.5862 11.1429C11.5862 10.6695 11.2157 10.2857 10.7586 10.2857C10.3016 10.2857 9.93103 10.6695 9.93103 11.1429C9.93103 11.6163 10.3016 12 10.7586 12Z" fill="white"/>
<path d="M0 10.2857H8.27586V12H0V10.2857Z" fill="white"/>
</mask>
<g mask="url(#mask0_1_21)">
<path d="M-1.65518 -2.57141H24.8276V24.8572H-1.65518V-2.57141Z" fill="black"/>
</g>
<path d="M21.6579 19.7143L19.5228 21.9257L20.6897 23.1429L24 19.7143L20.6897 16.2857L19.5145 17.4943L21.6579 19.7143ZM12.2731 19.7143L14.4083 17.5029L13.2414 16.2857L9.93103 19.7143L13.2414 23.1429L14.4165 21.9343L12.2731 19.7143ZM16.5517 24L14.9669 23.5054L17.3793 15.4286L18.9641 15.9232L16.5517 24Z" fill="black"/>
<defs>
<linearGradient id="paint0_linear_1_21" x1="4.13791" y1="20.1429" x2="9.10343" y2="20.1429" gradientUnits="userSpaceOnUse">
<stop stop-opacity="0"/>
<stop offset="0.8"/>
</linearGradient>
<linearGradient id="paint1_linear_1_21" x1="19.0345" y1="2.57143" x2="12.4138" y2="2.57143" gradientUnits="userSpaceOnUse">
<stop stop-opacity="0"/>
<stop offset="0.8"/>
</linearGradient>
</defs>
</svg>
